<?xml version="1.0" encoding="iso-8859-1"?>
<!-- Uploaded to: SVG Repo, www.svgrepo.com, Generator: SVG Repo Mixer Tools -->
<svg height="800px" width="800px" version="1.1" id="Layer_1" xmlns="http://www.w3.org/2000/svg" xmlns:xlink="http://www.w3.org/1999/xlink" 
	 viewBox="0 0 511.999 511.999" xml:space="preserve">
<path style="fill:#FF4F59;" d="M71.495,111.068v285.874l-40.279-40.279c-3.571-3.571-8.251-5.357-12.93-5.357
	s-9.36,1.786-12.93,5.357c-7.142,7.14-7.142,18.719,0,25.861l103.999,103.999c7.14,7.14,18.719,7.14,25.861,0l103.999-103.999
	c7.142-7.14,7.142-18.719,0-25.861c-7.14-7.14-18.719-7.14-25.861,0l-40.279,40.279V111.068H71.495z"/>
<path style="fill:#D83249;" d="M122.284,111.068l-0.001,380.811c4.68,0,9.36-1.785,12.931-5.356l103.999-103.999
	c7.142-7.14,7.142-18.719,0-25.861c-7.14-7.14-18.719-7.14-25.861,0l-40.279,40.279V111.068H122.284z"/>
<path style="fill:#B1B0BC;" d="M440.504,397.381V111.507l40.279,40.279c3.571,3.571,8.251,5.357,12.93,5.357
	c4.679,0,9.36-1.786,12.93-5.357c7.142-7.14,7.142-18.719,0-25.861L402.643,21.926c-7.14-7.14-18.719-7.14-25.861,0L272.783,125.925
	c-7.142,7.14-7.142,18.719,0,25.861c7.14,7.14,18.719,7.14,25.861,0l40.279-40.279v285.874H440.504z"/>
<path style="fill:#CFCDCF;" d="M389.715,397.381l0.001-380.811c-4.68,0-9.36,1.785-12.931,5.356L272.785,125.925
	c-7.142,7.14-7.142,18.719,0,25.861c7.14,7.14,18.719,7.14,25.861,0l40.279-40.279v285.874H389.715z"/>
<path style="fill:#FAD52A;" d="M22.739,212.668H221.83c7.419,0,13.435-6.015,13.435-13.435V30.006
	c0-7.419-6.015-13.435-13.435-13.435H22.739c-7.419,0-13.435,6.015-13.435,13.435v169.226
	C9.305,206.653,15.32,212.668,22.739,212.668z"/>
<path style="fill:#FF9900;" d="M122.284,212.668h99.545c7.419,0,13.435-6.015,13.435-13.435V30.006
	c0-7.419-6.015-13.435-13.435-13.435h-99.545V212.668z"/>
<path style="fill:#715038;" d="M122.284,172.942c-7.419,0-13.435,6.015-13.435,13.435v26.29h26.87v-26.29
	C135.72,178.957,129.705,172.942,122.284,172.942z"/>
<g>
	<path style="fill:#7E604A;" d="M122.284,172.942v39.725h13.435v-26.29C135.72,178.957,129.705,172.942,122.284,172.942z"/>
	<path style="fill:#7E604A;" d="M489.259,299.333H290.168c-7.419,0-13.435,6.015-13.435,13.435v169.227
		c0,7.419,6.015,13.435,13.435,13.435h199.091c7.419,0,13.435-6.015,13.435-13.435V312.768
		C502.695,305.348,496.68,299.333,489.259,299.333z"/>
</g>
<path style="fill:#AC825A;" d="M389.715,299.333h-99.546c-7.419,0-13.435,6.015-13.435,13.435v169.227
	c0,7.419,6.015,13.435,13.435,13.435h99.546V299.333z"/>
<path style="fill:#FF9900;" d="M389.715,339.058c7.419,0,13.435-6.015,13.435-13.435v-26.29h-26.87v26.29
	C376.28,333.043,382.295,339.058,389.715,339.058z"/>
<path style="fill:#FAD52A;" d="M389.715,339.058v-39.725H376.28v26.29C376.28,333.043,382.295,339.058,389.715,339.058z"/>
</svg>